<?xml version="1.0" encoding="utf-8"?>
<!-- Generator: Adobe Illustrator 24.0.0, SVG Export Plug-In . SVG Version: 6.00 Build 0)  -->
<svg version="1.1" id="Layer_1" xmlns="http://www.w3.org/2000/svg" xmlns:xlink="http://www.w3.org/1999/xlink" x="0px" y="0px"
	 viewBox="0 0 200 10" enable-background="new 0 0 200 10" xml:space="preserve">
<g>
	<path fill="#FFFFFF" d="M0,0.548h2.449l2.003,4.035l0.863,2.031h0.056C5.259,5.64,5.064,4.276,5.064,3.163V0.548h2.282v9.044H4.897
		L2.894,5.542L2.032,3.525H1.976c0.112,1.029,0.306,2.337,0.306,3.45v2.616H0V0.548z"/>
	<path fill="#FFFFFF" d="M18.947,0.548h2.393v9.044h-2.393V0.548z"/>
	<path fill="#FFFFFF" d="M32.94,5.11c0-3.008,1.989-4.753,4.28-4.753c1.172,0,2.116,0.552,2.727,1.177l-1.081,1.315
		c-0.455-0.424-0.944-0.722-1.6-0.722c-1.244,0-2.225,1.097-2.225,2.915c0,1.864,0.867,2.947,2.193,2.947
		c0.744,0,1.331-0.367,1.774-0.848l1.081,1.287c-0.753,0.876-1.755,1.331-2.928,1.331C34.86,9.758,32.94,8.164,32.94,5.11z"/>
	<path fill="#FFFFFF" d="M51.689,5.018c0-2.962,1.673-4.662,4.118-4.662c2.446,0,4.118,1.711,4.118,4.662
		c0,2.963-1.673,4.74-4.118,4.74C53.361,9.758,51.689,7.981,51.689,5.018z M57.824,5.018c0-1.818-0.781-2.892-2.018-2.892
		c-1.237,0-2.017,1.073-2.017,2.892s0.78,2.97,2.017,2.97C57.044,7.988,57.824,6.836,57.824,5.018z"/>
	<path fill="#FFFFFF" d="M71.526,0.492h1.614v7.741h3.779v1.358h-5.392V0.492z"/>
	<path fill="#FFFFFF" d="M88.519,0.492h5.476V1.85h-3.862v2.332h3.272V5.54h-3.272v2.694h4.001v1.358h-5.615V0.492z"/>
	<path fill="#FFFFFF" d="M105.734,0.46h1.2l3.306,5.741l0.986,1.891h0.056c-0.059-0.922-0.148-1.951-0.148-2.905V0.46h1.103v9.131
		h-1.2l-3.305-5.746l-0.986-1.885h-0.056c0.058,0.924,0.147,1.898,0.147,2.852v4.779h-1.103V0.46z"/>
	<path fill="#FFFFFF" d="M123.836,0.46h5.262v0.983h-4.101v2.862h3.46v0.983h-3.46v3.32h4.24v0.983h-5.401V0.46z"/>
	<path fill="#FFFFFF" d="M140.838,0.422h0.64V9.04h4.223v0.551h-4.863V0.422z"/>
	<path fill="#FFFFFF" d="M157.302,8.377l0.411-0.44c0.665,0.752,1.622,1.239,2.692,1.239c1.399,0,2.282-0.75,2.282-1.842
		c0-1.145-0.748-1.51-1.651-1.916l-1.39-0.624c-0.799-0.352-1.86-0.922-1.86-2.28c0-1.331,1.141-2.259,2.666-2.259
		c1.105,0,1.995,0.502,2.555,1.098l-0.37,0.425c-0.537-0.569-1.265-0.942-2.184-0.942c-1.21,0-2.022,0.647-2.022,1.639
		c0,1.07,0.915,1.473,1.586,1.768l1.387,0.619c1.026,0.458,1.93,1.024,1.93,2.426c0,1.405-1.156,2.468-2.933,2.468
		C159.057,9.758,158.024,9.191,157.302,8.377z"/>
	<path fill="#FFFFFF" d="M174.932,4.972c0-2.894,1.558-4.73,3.728-4.73s3.728,1.836,3.728,4.73s-1.558,4.786-3.728,4.786
		S174.932,7.866,174.932,4.972z M181.916,4.972c0-2.644-1.308-4.313-3.256-4.313c-1.947,0-3.256,1.669-3.256,4.313
		s1.308,4.369,3.256,4.369C180.608,9.341,181.916,7.615,181.916,4.972z"/>
	<path fill="#FFFFFF" d="M193.989,0.409h0.474l4.062,6.734l1.057,1.809h0.056c-0.027-0.89-0.056-1.725-0.056-2.587V0.409H200v9.182
		h-0.474l-4.062-6.734l-1.057-1.809h-0.057c0.028,0.863,0.057,1.642,0.057,2.504v6.038h-0.418V0.409z"/>
</g>
<g>
</g>
<g>
</g>
<g>
</g>
<g>
</g>
<g>
</g>
</svg>
